<svg fill="none" height="32" viewBox="0 0 32 32" width="32" xmlns="http://www.w3.org/2000/svg">
    <path clip-rule="evenodd"
        d="M9.26329 3.15208C9.80718 3.05617 10.3258 3.41934 10.4217 3.96324L10.7812 6.00181C11.5362 5.97828 12.2918 6.07705 13.0182 6.29582C13.4106 6.414 13.7907 6.56606 14.1545 6.74973L15.3414 5.05474C15.6581 4.60234 16.2817 4.49239 16.7341 4.80917C17.1865 5.12595 17.2964 5.74949 16.9797 6.2019L15.7928 7.89687C16.4692 8.53232 17.0131 9.29648 17.3921 10.1453C17.6173 10.6496 17.391 11.241 16.8867 11.4661C16.3832 11.6909 15.793 11.4657 15.567 10.9632C14.6755 11.4294 13.8713 12.051 13.1933 12.8013C12.2911 13.7998 11.6382 14.9979 11.2882 16.2974C10.4889 16.0237 9.63733 15.9374 8.79935 16.0452C8.29376 16.1102 7.80128 16.2448 7.3355 16.444C7.55428 16.8482 7.47092 17.3639 7.10863 17.6765C6.69044 18.0372 6.05899 17.9907 5.69824 17.5725C5.09481 16.873 4.63632 16.0616 4.34836 15.1855L2.31053 15.5449C1.76664 15.6408 1.24798 15.2776 1.15208 14.7337C1.05617 14.1898 1.41934 13.6711 1.96324 13.5752L4.00164 13.2158C3.98886 12.8027 4.01266 12.3881 4.07336 11.9769C4.18329 11.2323 4.41233 10.5119 4.75023 9.84296L3.05468 8.65572C2.60228 8.33895 2.49233 7.7154 2.80911 7.263C3.12589 6.81059 3.74943 6.70064 4.20184 7.01742L5.89769 8.20487C6.29754 7.77941 6.75018 7.40443 7.24581 7.08964C7.73644 6.77803 8.26254 6.52962 8.81157 6.34901L8.45213 4.31053C8.35622 3.76664 8.71939 3.24798 9.26329 3.15208ZM11.2882 16.2974L11.2882 16.2974L15.567 10.9632L11.2882 16.2974Z"
        fill="#FBB03B" fill-rule="evenodd" />
    <path clip-rule="evenodd"
        d="M8.83236 15.0349C9.43324 14.9724 10.0382 14.9941 10.63 15.0982C10.8816 14.442 11.2066 13.8124 11.6011 13.2221C12.6449 11.6598 14.1286 10.4422 15.8645 9.72315C17.6004 9.00412 19.5106 8.81598 21.3534 9.18254C23.1962 9.5491 24.8889 10.4539 26.2175 11.7825C27.5461 13.1111 28.4509 14.8038 28.8175 16.6466C29.184 18.4895 28.9959 20.3996 28.2769 22.1355C27.5578 23.8714 26.3402 25.3551 24.7779 26.399C23.2157 27.4428 21.3789 28 19.5 28H9.49918C8.55541 27.9992 7.62313 27.7929 6.76714 27.3954C5.91115 26.998 5.15198 26.4189 4.5424 25.6984C3.93282 24.9779 3.48744 24.1333 3.23723 23.2233C2.98702 22.3133 2.93798 21.3597 3.09351 20.4288C3.24904 19.498 3.60541 18.6121 4.13786 17.8329C4.67031 17.0537 5.36606 16.3997 6.17676 15.9165C6.98745 15.4333 7.89365 15.1325 8.83236 15.0349Z"
        fill="white" fill-rule="evenodd" />
</svg>
