<svg fill="none" height="32" viewBox="0 0 32 32" width="32" xmlns="http://www.w3.org/2000/svg">
    <path clip-rule="evenodd" d="M17.1174 20.5488C17.4204 20.087 17.2918 19.4671 16.83 19.1641C16.3683 18.8611 15.7483 18.9897 15.4453 19.4515L11.5078 25.4515C11.2048 25.9132 11.3335 26.5331 11.7952 26.8362C12.2569 27.1392 12.8769 27.0105 13.1799 26.5488L17.1174 20.5488ZM20.1174 25.5488C20.4204 25.087 20.2918 24.4671 19.83 24.1641C19.3683 23.8611 18.7483 23.9897 18.4453 24.4515L15.1641 29.4515C14.8611 29.9132 14.9897 30.5331 15.4515 30.8362C15.9132 31.1392 16.5331 31.0105 16.8362 30.5488L20.1174 25.5488Z"
        fill="#9CB8FF"
        fill-rule="evenodd" />
    <path clip-rule="evenodd" d="M8.83236 8.03487C9.43324 7.97238 10.0382 7.99414 10.63 8.09816C10.8816 7.44197 11.2066 6.81243 11.6011 6.22209C12.6449 4.65982 14.1286 3.44218 15.8645 2.72315C17.6004 2.00412 19.5106 1.81598 21.3534 2.18254C23.1962 2.5491 24.8889 3.45389 26.2175 4.78249C27.5461 6.11109 28.4509 7.80383 28.8175 9.64665C29.184 11.4895 28.9959 13.3996 28.2769 15.1355C27.5578 16.8714 26.3402 18.3551 24.7779 19.399C23.2157 20.4428 21.3789 21 19.5 21H9.49918C8.55541 20.9992 7.62313 20.7929 6.76714 20.3954C5.91115 19.998 5.15198 19.4189 4.5424 18.6984C3.93282 17.9779 3.48744 17.1333 3.23723 16.2233C2.98702 15.3133 2.93798 14.3597 3.09351 13.4288C3.24904 12.498 3.60541 11.6121 4.13786 10.8329C4.67031 10.0537 5.36606 9.39972 6.17676 8.91653C6.98745 8.43334 7.89365 8.13248 8.83236 8.03487Z"
        fill="white"
        fill-rule="evenodd" />
</svg>
