<svg fill="none" height="58" width="232" xmlns="http://www.w3.org/2000/svg">
    <path
        d="m143.9 36.124-5.939 16.709a3.427 3.427 0 0 1-3.289 2.384h-.732a3.543 3.543 0 0 1-3.377-2.384l-6.034-16.71c-.089-.272.094-.64.46-.64h4.564c.183 0 .366.184.461.368l4.292 14.413 4.204-14.413c.094-.178.271-.368.454-.368h4.482c.366 0 .549.368.454.64Zm7.676-.546h-4.021c-.277 0-.454.184-.454.457V54.76c0 .278.183.456.46.456h4.015c.277 0 .461-.184.461-.456V36.035c0-.279-.184-.457-.461-.457Zm-2.013-8.541c-1.547 0-2.834 1.198-2.834 2.663 0 1.471 1.281 2.663 2.834 2.663 1.558 0 2.834-1.192 2.834-2.657 0-1.471-1.276-2.67-2.834-2.67Zm-27.591 15.967v9.65a2.252 2.252 0 0 1-1.647 2.195c-1.553.463-3.561.83-5.668.83-5.934 0-8.857-2.3-8.857-6.334 0-5.415 5.574-6.424 11.514-6.791v-1.009c0-2.111-1.282-2.663-3.567-2.663-1.275 0-2.834.368-4.109.736-.183.088-.46 0-.555-.273l-1.004-2.67c-.177-.272 0-.551.278-.64 1.553-.457 3.655-.92 5.756-.92 4.387-.095 7.948 1.187 7.859 7.89Zm-4.658 8.726h-.006v-6.056c-3.649.183-6.849.551-6.849 3.487 0 1.839 1.464 2.936 4.021 2.936 1.098 0 2.284-.184 2.834-.367Zm54.549-8.726v9.65a2.252 2.252 0 0 1-1.647 2.195c-1.642.463-3.655.83-5.757.83-5.94 0-8.862-2.3-8.862-6.334 0-5.415 5.573-6.424 11.513-6.791v-1.009c0-2.111-1.281-2.663-3.566-2.663-1.275 0-2.828.368-4.109.736-.183.088-.455 0-.55-.273l-1.003-2.67c-.183-.272 0-.551.271-.64 1.553-.457 3.655-.92 5.757-.92 4.387-.095 7.953 1.187 7.953 7.89Zm-4.753 2.67c-3.661.183-6.849.551-6.849 3.487 0 1.839 1.458 2.936 4.015 2.936 1.098 0 2.285-.184 2.834-.367v-6.056Zm41.666-9.182L189.859 21.07c-.454-.368-1.092-.178-1.181.367h-.006l-3.288 12.119a1.508 1.508 0 0 0 1.281 1.927l11.147 1.376a.185.185 0 0 1 0 .368l-11.791 1.192a3.016 3.016 0 0 0-2.645 2.296l-3.66 13.773c-.177.64.549 1.097 1.098.824l27.868-17.622c.461-.279.461-.83.094-1.198Z"
        fill="#FF585D" />
    <path
        d="M57.305 55.222h-4.2c-.272 0-.455-.176-.455-.452V42.227c0-1.909-1.28-2.995-3.197-2.995a4.2 4.2 0 0 0-2.92.998v14.54c0 .27-.184.452-.461.452H42.06c-.277 0-.46-.176-.46-.452V42.045c0-1.727-1.28-2.819-3.38-2.819-1.092 0-2.006.188-2.737.458v15.092c0 .264-.177.446-.455.446h-4.017c-.278 0-.46-.176-.46-.452v-16.9c0-.728.46-1.275 1.097-1.55 1.829-.635 4.017-.999 6.3-.999 3.198 0 5.204.998 6.301 1.997a11.703 11.703 0 0 1 6.572-1.997c4.295 0 6.938 2.549 6.938 6.454V54.77c0 .27-.177.452-.454.452Zm-38.076.458h-.005.005Zm2.183-12.085c-1.728-.546-3.008-1.186-3.008-2.642 0-1.087 1.003-1.997 2.737-1.997a8.92 8.92 0 0 1 3.475.91c.271.088.542 0 .637-.27.271-.634.82-1.82 1.091-2.454.189-.277.095-.547-.177-.64a14.196 14.196 0 0 0-5.663-1.18c-4.567 0-7.21 2.272-7.21 5.724 0 3.817 3.11 4.998 5.576 5.908 1.734.546 3.008 1.18 3.008 2.636 0 1.363-1.091 2.179-2.92 2.179-1.186 0-3.014-.452-4.106-.998-.277-.088-.549 0-.643.27-.271.728-.909 2.096-1.186 2.819-.088.182.095.546.277.64 1.551.633 3.745 1.18 5.926 1.18 5.208-.001 7.944-2.367 7.944-6.095 0-3.993-3.197-5.086-5.758-5.99Zm55.52-.464v9.554a2.233 2.233 0 0 1-1.64 2.173c-1.646.458-3.652.822-5.752.822-5.935 0-8.86-2.279-8.86-6.272 0-5.36 5.574-6.36 11.503-6.723v-.998c0-2.091-1.274-2.637-3.557-2.637-1.275 0-2.832.364-4.106.728-.183.088-.46 0-.555-.27l-1.003-2.643c-.088-.27 0-.546.277-.634 1.552-.452 3.652-.91 5.747-.91h.005c4.384-.094 7.853 1.175 7.941 7.81Zm-4.749 2.643c-3.652.182-6.843.546-6.843 3.452 0 1.82 1.457 2.907 4.011 2.907 1.098 0 2.29-.182 2.832-.364v-5.995Zm18.448-9.995h-1.552c-4.383 0-7.852 3.27-7.852 7.634V54.77c0 .27.177.452.454.452h4.012c.277 0 .46-.176.46-.452V43.953c0-3.089 2.1-4.087 4.566-4.357.278 0 .455-.276.455-.458v-2.907c0-.27-.272-.452-.543-.452Zm9.486 19.807c1.003 0 2.006-.176 2.649-.452a.498.498 0 0 0 .271-.452v-3.095c0-.27-.271-.54-.542-.452-.278.094-.549.094-.826.094-1.275 0-2.283-.546-2.283-2.185v-9.63h3.203c.271 0 .454-.182.454-.458V36.23c0-.27-.177-.452-.454-.452h-3.198V31.14c0-.27-.177-.452-.454-.452h-3.935c-.271 0-.454.176-.454.452v18.268c0 4.087 1.829 6.178 5.569 6.178ZM218.354 1.239l-27.845 17.452c-.454.276-.454.822-.089 1.18l18.896 15.268c.46.364 1.098.094 1.192-.364l3.286-11.991a1.49 1.49 0 0 0-1.28-1.908l-11.138-1.369c-.272 0-.272-.358 0-.358l11.775-1.186a3.006 3.006 0 0 0 2.655-2.273l3.646-13.629c.182-.634-.549-1.092-1.098-.822Z"
        fill="#fff" />
</svg>